<?xml version="1.0" encoding="UTF-8"?>
<svg width="70px" height="42px" viewBox="0 0 70 42" version="1.1" xmlns="http://www.w3.org/2000/svg" xmlns:xlink="http://www.w3.org/1999/xlink">
    <!-- Generator: Sketch 58 (84663) - https://sketch.com -->
    <title>Icon/Quantité</title>
    <desc>Created with Sketch.</desc>
    <g id="Icon/Quantité" stroke="none" stroke-width="1" fill="none" fill-rule="evenodd">
        <g id="Icon" fill-rule="nonzero">
            <path d="M41.525593,19 C39.4126786,18.2289157 38.6255144,17.2008032 39.1641004,15.7871486 C39.2430982,15.5111998 39.4145893,15.2563014 39.6612568,15.0481928 L45.5442734,11 L46,11.1927711 C45.7099921,13.248996 45.461414,15.3052209 45.0885467,17.3614458 C45.0885467,18.2610442 43.8042262,18.6465863 42.8513432,19 L41.525593,19 Z" id="Path" fill="#5074AD"></path>
            <path d="M46,0.163023118 C46,2.18450979 45.5839575,4.20599646 45.2095192,6.1948785 C44.9562772,7.21567534 43.8317526,7.96136781 42.5052427,7.9881328 C41.246896,8.08479533 40.0360494,7.58468769 39.4265279,6.71655248 C38.7402697,5.84343923 38.8942561,4.7171218 39.8009662,3.97776409 C41.8395746,2.57576527 43.6285575,1.30418495 45.5423532,0 L46,0.163023118 Z" id="Path" fill="#5074AD"></path>
            <path d="M36,0.0977122297 C35.7153349,2.1822398 35.5120027,4.29933811 35.0646719,6.35129493 C34.7964307,7.30980822 33.7290931,7.98826588 32.5026861,7.97983209 C31.3083548,8.10674022 30.1411821,7.62634812 29.5747024,6.77471459 C28.8084325,5.97808728 28.8084325,4.86797022 29.5747024,4.0713429 C30.579292,3.20144038 31.6670258,2.3955873 32.8280177,1.6611079 C33.6820129,1.07483453 34.5766746,0.553702635 35.4713363,0 L36,0.0977122297 Z" id="Path" fill="#5074AD"></path>
            <path d="M26,0.0977122297 C25.7153349,2.1822398 25.5120027,4.29933811 25.0646719,6.35129493 C24.7964307,7.30980822 23.7290931,7.98826588 22.5026861,7.97983209 C21.3083548,8.10674022 20.1411821,7.62634812 19.5747024,6.77471459 C18.8084325,5.97808728 18.8084325,4.86797022 19.5747024,4.0713429 C20.579292,3.20144038 21.6670258,2.3955873 22.8280177,1.6611079 C23.6820129,1.07483453 24.5766746,0.553702635 25.4713363,0 L26,0.0977122297 Z" id="Path-Copy-5" fill="#5074AD"></path>
            <path d="M36,11.0977122 C35.7153349,13.1822398 35.5120027,15.2993381 35.0646719,17.3512949 C34.7964307,18.3098082 33.7290931,18.9882659 32.5026861,18.9798321 C31.3083548,19.1067402 30.1411821,18.6263481 29.5747024,17.7747146 C28.8084325,16.9780873 28.8084325,15.8679702 29.5747024,15.0713429 C30.579292,14.2014404 31.6670258,13.3955873 32.8280177,12.6611079 C33.6820129,12.0748345 34.5766746,11.5537026 35.4713363,11 L36,11.0977122 Z" id="Path-Copy-2" fill="#5074AD"></path>
            <path d="M26,11.0977122 C25.7153349,13.1822398 25.5120027,15.2993381 25.0646719,17.3512949 C24.7964307,18.3098082 23.7290931,18.9882659 22.5026861,18.9798321 C21.3083548,19.1067402 20.1411821,18.6263481 19.5747024,17.7747146 C18.8084325,16.9780873 18.8084325,15.8679702 19.5747024,15.0713429 C20.579292,14.2014404 21.6670258,13.3955873 22.8280177,12.6611079 C23.6820129,12.0748345 24.5766746,11.5537026 25.4713363,11 L26,11.0977122 Z" id="Path-Copy-3" fill="#5074AD"></path>
            <path d="M16,11.0977122 C15.7153349,13.1822398 15.5120027,15.2993381 15.0646719,17.3512949 C14.7964307,18.3098082 13.7290931,18.9882659 12.5026861,18.9798321 C11.3083548,19.1067402 10.1411821,18.6263481 9.57470245,17.7747146 C8.80843252,16.9780873 8.80843252,15.8679702 9.57470245,15.0713429 C10.579292,14.2014404 11.6670258,13.3955873 12.8280177,12.6611079 C13.6820129,12.0748345 14.5766746,11.5537026 15.4713363,11 L16,11.0977122 Z" id="Path-Copy-8" fill="#5074AD"></path>
            <path d="M14.521327,42 C12.4202212,41.232 11.6323065,40.1653333 12.1575829,38.8 C12.238474,38.5256687 12.4098966,38.2721329 12.6552133,38.064 L18.5438389,34 L19,34.192 C18.7097156,36.208 18.4609005,38.288 18.0876777,40.304 C18.0876777,41.232 16.8021327,41.584 15.8483412,41.968 L14.521327,42 Z" id="Path-Copy" fill="#5074AD"></path>
            <path d="M2.52132701,42 C0.420221169,41.232 -0.367693523,40.1653333 0.157582938,38.8 C0.238473952,38.5256687 0.409896608,38.2721329 0.65521327,38.064 L6.54383886,34 L7,34.192 C6.70971564,36.208 6.46090047,38.288 6.08767773,40.304 C6.08767773,41.232 4.8021327,41.584 3.84834123,41.968 L2.52132701,42 Z" id="Path-Copy-11" fill="#5074AD"></path>
            <path d="M23.521327,42 C21.4202212,41.232 20.6323065,40.1653333 21.1575829,38.8 C21.238474,38.5256687 21.4098966,38.2721329 21.6552133,38.064 L27.5438389,34 L28,34.192 C27.7097156,36.208 27.4609005,38.288 27.0876777,40.304 C27.0876777,41.232 25.8021327,41.584 24.8483412,41.968 L23.521327,42 Z" id="Path-Copy-4" fill="#5074AD"></path>
            <path d="M34.521327,42 C32.4202212,41.232 31.6323065,40.1653333 32.1575829,38.8 C32.238474,38.5256687 32.4098966,38.2721329 32.6552133,38.064 L38.5438389,34 L39,34.192 C38.7097156,36.208 38.4609005,38.288 38.0876777,40.304 C38.0876777,41.232 36.8021327,41.584 35.8483412,41.968 L34.521327,42 Z" id="Path-Copy-6" fill="#5074AD"></path>
            <path d="M47,23 C46.7491423,25.0160628 46.5400943,27.0321257 46.1638078,29.0481885 C45.9581431,30.0814873 44.8895633,30.8716953 43.5716119,30.9651007 C42.3225256,31.1323266 41.0688519,30.6889753 40.3940816,29.8413936 C39.7535113,28.9365907 39.9043017,27.8108242 40.7703681,27.0321257 C41.3903655,26.4648803 42.0762554,25.9448193 42.819039,25.4787658 C44.0733273,24.6194603 45.4112348,23.8262553 46.7073327,23 L47,23 Z" id="Path" fill="#5074AD"></path>
            <path d="M37,23.1954111 C36.7116377,25.1820911 36.5468592,27.2013396 36.134913,29.1880196 C35.9324209,30.2162611 34.8146997,30.9756667 33.4984573,30.9792884 C32.2553287,31.1096064 31.0404122,30.6163691 30.4500554,29.7416845 C29.7563458,28.8709771 29.8738818,27.7426126 30.7384178,26.97336 C32.6333703,25.6054819 34.610712,24.3353095 36.5056646,23 L37,23.1954111 Z" id="Path" fill="#5074AD"></path>
            <path d="M27,23 C26.7117283,25.117895 26.5058199,27.2688822 26.0528215,29.3536851 C25.7786909,30.3215903 24.6933077,31 23.4583761,30.9751985 C22.2349128,31.1189003 21.0312227,30.6286544 20.4521139,29.7507904 C19.7675888,28.9041537 19.8686051,27.7947888 20.6992039,27.0372374 C21.7851356,26.1923575 22.9408535,25.4073906 24.1584645,24.6876976 C24.982098,24.0920396 25.9292765,23.595658 26.7940916,23.0330921 L27,23 Z" id="Path" fill="#5074AD"></path>
            <path d="M17,23 C16.7117283,25.117895 16.5058199,27.2688822 16.0528215,29.3536851 C15.7786909,30.3215903 14.6933077,31 13.4583761,30.9751985 C12.2349128,31.1189003 11.0312227,30.6286544 10.4521139,29.7507904 C9.76758884,28.9041537 9.86860512,27.7947888 10.6992039,27.0372374 C11.7851356,26.1923575 12.9408535,25.4073906 14.1584645,24.6876976 C14.982098,24.0920396 15.9292765,23.595658 16.7940916,23.0330921 L17,23 Z" id="Path-Copy-9" fill="#5074AD"></path>
            <path d="M7,23 C6.71172828,25.117895 6.50581991,27.2688822 6.0528215,29.3536851 C5.77869094,30.3215903 4.69330772,31 3.45837605,30.9751985 C2.2349128,31.1189003 1.03122274,30.6286544 0.452113863,29.7507904 C-0.232411159,28.9041537 -0.131394881,27.7947888 0.699203906,27.0372374 C1.78513561,26.1923575 2.9408535,25.4073906 4.15846451,24.6876976 C4.98209798,24.0920396 5.92927648,23.595658 6.79409163,23.0330921 L7,23 Z" id="Path-Copy-10" fill="#5074AD"></path>
            <rect id="Rectangle" fill="#FFFFFF" x="64" y="9" width="2" height="31"></rect>
            <polygon id="Path" fill="#FFFFFF" points="65 2 60 10 70 10"></polygon>
        </g>
    </g>
</svg>