<?xml version="1.0" encoding="UTF-8"?>
<svg width="70px" height="42px" viewBox="0 0 70 42" version="1.1" xmlns="http://www.w3.org/2000/svg" xmlns:xlink="http://www.w3.org/1999/xlink">
    <!-- Generator: Sketch 58 (84663) - https://sketch.com -->
    <title>Icon/Pluie</title>
    <desc>Created with Sketch.</desc>
    <g id="Icon/Pluie" stroke="none" stroke-width="1" fill="none" fill-rule="evenodd">
        <g id="Icon" transform="translate(14.000000, 0.000000)" fill="#5074AD" fill-rule="nonzero">
            <path d="M28.164794,19.2 C26.3537245,18.5060241 25.6790123,17.5807229 26.1406575,16.3084337 C26.2083699,16.0600799 26.3553623,15.8306712 26.5667915,15.6433735 L31.6093772,12 L32,12.173494 C31.7514218,14.0240964 31.5383548,15.8746988 31.2187543,17.7253012 C31.2187543,18.5349398 30.1179082,18.8819277 29.3011513,19.2 L28.164794,19.2 Z" id="Path"></path>
            <path d="M37.1736066,19.2 C35.3666986,18.5115538 34.6581073,17.5936255 35.1541212,16.3314741 C35.2062988,16.0807398 35.3551185,15.8497994 35.579276,15.6717131 L40.6102747,12 L41,12.1721116 C40.751993,14.0079681 40.5394156,15.8438247 40.1851199,17.6796813 C40.1851199,18.4828685 39.1222329,18.8270916 38.2719232,19.1426295 L37.1736066,19.2 Z" id="Path"></path>
            <path d="M41,0.0882267105 C40.7500987,1.76453421 40.7500987,3.70552184 40.3216966,5.49946496 C40.1279722,6.4172793 39.2005095,7.10853572 38.0725852,7.17577246 C36.9669223,7.31164224 35.8751551,6.8673437 35.3342834,6.06141086 C34.7934117,5.25547801 34.9172843,4.25755265 35.6449728,3.55847732 C36.183678,3.06106282 36.7685458,2.59892884 37.3942817,2.17625886 C38.4652871,1.44103627 39.6076929,0.735222588 40.7143986,0 L41,0.0882267105 Z" id="Path"></path>
            <path d="M32,0.146720807 C32,1.96605881 31.6433921,3.78539681 31.322445,5.57539065 C31.1053805,6.49410781 30.1415022,7.16523103 29.0044937,7.18931952 C27.9259109,7.27631579 26.8880423,6.82621892 26.3655953,6.04489723 C25.777374,5.25909531 25.9093624,4.24540962 26.6865424,3.57998768 C28.4339211,2.31818874 29.967335,1.17376645 31.6077313,0 L32,0.146720807 Z" id="Path"></path>
            <path d="M22,0.0879410067 C21.7560014,1.96401582 21.5817166,3.86940429 21.1982902,5.71616544 C20.9683691,6.5788274 20.0535084,7.18943929 19.0023024,7.18184888 C17.9785898,7.2960662 16.9781561,6.8637133 16.4926021,6.09724313 C15.8357993,5.38027855 15.8357993,4.38117319 16.4926021,3.66420861 C17.3536789,2.88129634 18.2860221,2.15602857 19.281158,1.49499711 C20.0131539,0.967351074 20.7800068,0.498332371 21.5468597,0 L22,0.0879410067 Z" id="Path"></path>
            <path d="M22,12.087941 C21.7560014,13.9640158 21.5817166,15.8694043 21.1982902,17.7161654 C20.9683691,18.5788274 20.0535084,19.1894393 19.0023024,19.1818489 C17.9785898,19.2960662 16.9781561,18.8637133 16.4926021,18.0972431 C15.8357993,17.3802785 15.8357993,16.3811732 16.4926021,15.6642086 C17.3536789,14.8812963 18.2860221,14.1560286 19.281158,13.4949971 C20.0131539,12.9673511 20.7800068,12.4983324 21.5468597,12 L22,12.087941 Z" id="Path-Copy-2"></path>
            <path d="M13,12.087941 C12.7560014,13.9640158 12.5817166,15.8694043 12.1982902,17.7161654 C11.9683691,18.5788274 11.0535084,19.1894393 10.0023024,19.1818489 C8.97858985,19.2960662 7.9781561,18.8637133 7.4926021,18.0972431 C6.8357993,17.3802785 6.8357993,16.3811732 7.4926021,15.6642086 C8.35367887,14.8812963 9.28602213,14.1560286 10.281158,13.4949971 C11.0131539,12.9673511 11.7800068,12.4983324 12.5468597,12 L13,12.087941 Z" id="Path-Copy-3"></path>
            <path d="M2.16113744,42 C0.360189573,41.3088 -0.315165877,40.3488 0.13507109,39.12 C0.204406245,38.8731018 0.35133995,38.6449196 0.561611374,38.4576 L5.60900474,34.8 L6,34.9728 C5.75118483,36.7872 5.53791469,38.6592 5.21800948,40.4736 C5.21800948,41.3088 4.11611374,41.6256 3.2985782,41.9712 L2.16113744,42 Z" id="Path-Copy"></path>
            <path d="M12.1611374,42 C10.3601896,41.3088 9.68483412,40.3488 10.1350711,39.12 C10.2044062,38.8731018 10.3513399,38.6449196 10.5616114,38.4576 L15.6090047,34.8 L16,34.9728 C15.7511848,36.7872 15.5379147,38.6592 15.2180095,40.4736 C15.2180095,41.3088 14.1161137,41.6256 13.2985782,41.9712 L12.1611374,42 Z" id="Path-Copy-4"></path>
            <path d="M21.1611374,42 C19.3601896,41.3088 18.6848341,40.3488 19.1350711,39.12 C19.2044062,38.8731018 19.3513399,38.6449196 19.5616114,38.4576 L24.6090047,34.8 L25,34.9728 C24.7511848,36.7872 24.5379147,38.6592 24.2180095,40.4736 C24.2180095,41.3088 23.1161137,41.6256 22.2985782,41.9712 L21.1611374,42 Z" id="Path-Copy-6"></path>
            <path d="M32.1611374,42 C30.3601896,41.3088 29.6848341,40.3488 30.1350711,39.12 C30.2044062,38.8731018 30.3513399,38.6449196 30.5616114,38.4576 L35.6090047,34.8 L36,34.9728 C35.7511848,36.7872 35.5379147,38.6592 35.2180095,40.4736 C35.2180095,41.3088 34.1161137,41.6256 33.2985782,41.9712 L32.1611374,42 Z" id="Path-Copy-7"></path>
            <path d="M33,22.8 C32.7849791,24.6144566 32.6057951,26.4289131 32.2832638,28.2433697 C32.1069798,29.1733386 31.1910542,29.8845257 30.0613817,29.9685907 C28.9907362,30.1190939 27.9161588,29.7200778 27.3377842,28.9572542 C26.788724,28.1429316 26.9179729,27.1297418 27.6603155,26.4289131 C28.1917419,25.9183923 28.7796475,25.4503374 29.4163191,25.0308892 C30.4914234,24.2575143 31.6382013,23.5436297 32.7491423,22.8 L33,22.8 Z" id="Path"></path>
            <path d="M43,22.8 C42.7849791,24.6144566 42.6057951,26.4289131 42.2832638,28.2433697 C42.1069798,29.1733386 41.1910542,29.8845257 40.0613817,29.9685907 C38.9907362,30.1190939 37.9161588,29.7200778 37.3377842,28.9572542 C36.788724,28.1429316 36.9179729,27.1297418 37.6603155,26.4289131 C38.1917419,25.9183923 38.7796475,25.4503374 39.4163191,25.0308892 C40.4914234,24.2575143 41.6382013,23.5436297 42.7491423,22.8 L43,22.8 Z" id="Path-Copy-5"></path>
            <path d="M24,22.97587 C23.7528323,24.763882 23.6115936,26.5812057 23.2584968,28.3692176 C23.0849322,29.294635 22.1268854,29.9781 20.9986777,29.9813596 C19.9331388,30.0986457 18.8917819,29.6547322 18.3857618,28.8675161 C17.7911536,28.0838794 17.8918987,27.0683513 18.6329295,26.376024 C20.2571745,25.1449337 21.9520389,24.0017785 23.5762839,22.8 L24,22.97587 Z" id="Path"></path>
            <path d="M14,22.8 C13.75291,24.7061055 13.5764171,26.6419939 13.1881327,28.5183166 C12.9531637,29.3894312 12.0228352,30 10.9643223,29.9776786 C9.91563954,30.1070103 8.88390521,29.665789 8.38752617,28.8757114 C7.80079043,28.1137383 7.88737582,27.1153099 8.59931763,26.4335137 C9.53011624,25.6731218 10.5207316,24.9666515 11.5643981,24.3189278 C12.2703697,23.7828357 13.082237,23.3360922 13.8235071,22.8297829 L14,22.8 Z" id="Path"></path>
        </g>
    </g>
</svg>